<?xml version="1.0" standalone="no"?>
<!DOCTYPE svg PUBLIC "-//W3C//DTD SVG 20010904//EN"
 "http://www.w3.org/TR/2001/REC-SVG-20010904/DTD/svg10.dtd">
<svg version="1.0" xmlns="http://www.w3.org/2000/svg"
 width="512.000000pt" height="512.000000pt" viewBox="0 0 512.000000 512.000000"
 preserveAspectRatio="xMidYMid meet">

<g transform="translate(0.000000,512.000000) scale(0.100000,-0.100000)"
fill="#000000" stroke="none">
<path d="M1128 4624 c-198 -47 -355 -205 -415 -415 -17 -61 -18 -145 -18
-1649 0 -1504 1 -1588 18 -1649 60 -211 219 -369 419 -416 95 -22 2122 -22
2217 0 180 43 343 192 403 371 32 95 38 183 38 609 l0 419 433 436 c390 392
436 442 464 501 44 92 63 173 63 271 0 163 -53 291 -170 409 -114 116 -248
172 -410 172 -120 0 -236 -35 -334 -102 l-44 -31 -5 303 c-3 245 -8 313 -22
361 -59 208 -218 364 -417 411 -91 21 -2132 21 -2220 -1z m2163 -314 c53 -15
122 -80 150 -142 24 -53 24 -54 27 -492 l3 -439 -524 -526 c-636 -638 -580
-556 -663 -965 -61 -303 -65 -357 -30 -432 40 -86 143 -154 232 -154 18 0 158
25 311 55 356 71 397 89 554 242 58 57 109 103 113 103 4 0 6 -125 4 -278 -3
-267 -4 -279 -27 -330 -28 -62 -97 -127 -150 -142 -49 -14 -2053 -14 -2102 0
-53 15 -122 80 -150 142 l-24 53 0 1550 c0 1496 1 1552 19 1599 24 62 79 124
131 147 38 18 95 19 1065 19 657 0 1038 -4 1061 -10z m994 -971 c126 -59 184
-228 120 -355 -34 -67 -1331 -1365 -1389 -1389 -33 -14 -410 -95 -441 -95 -18
0 69 422 96 469 22 36 1222 1247 1313 1324 92 78 199 94 301 46z"/>
<path d="M1444 3779 c-45 -13 -100 -78 -109 -128 -9 -53 25 -126 74 -158 l34
-23 797 0 797 0 34 23 c49 32 83 105 74 158 -9 53 -64 115 -113 129 -47 13
-1544 12 -1588 -1z"/>
<path d="M1444 3139 c-46 -13 -100 -78 -109 -128 -9 -53 25 -126 74 -158 l34
-23 582 0 582 0 33 23 c48 32 72 69 77 119 7 58 -23 118 -74 149 l-38 24 -565
2 c-322 1 -578 -2 -596 -8z"/>
</g>
</svg>
