<?xml version="1.0" standalone="no"?>
<!DOCTYPE svg PUBLIC "-//W3C//DTD SVG 20010904//EN"
 "http://www.w3.org/TR/2001/REC-SVG-20010904/DTD/svg10.dtd">
<svg version="1.0" xmlns="http://www.w3.org/2000/svg"
 width="512.000000pt" height="512.000000pt" viewBox="0 0 512.000000 512.000000"
 preserveAspectRatio="xMidYMid meet">

<g transform="translate(0.000000,512.000000) scale(0.100000,-0.100000)"
fill="#000000" stroke="none">
<path d="M2360 4390 c-387 -48 -748 -211 -1027 -463 -440 -398 -665 -980 -602
-1555 67 -622 437 -1161 989 -1446 913 -470 2025 -104 2488 820 382 763 177
1696 -492 2243 -231 189 -541 331 -834 382 -134 23 -404 33 -522 19z m375
-160 c250 -28 480 -104 682 -226 436 -263 719 -684 805 -1194 7 -41 12 -154
12 -250 0 -96 -5 -209 -12 -250 -70 -416 -273 -776 -582 -1034 -643 -536
-1557 -526 -2187 24 -632 550 -756 1492 -290 2191 346 517 962 807 1572 739z"/>
<path d="M2505 4055 c-24 -23 -25 -31 -25 -135 0 -104 1 -112 25 -135 15 -16
36 -25 55 -25 19 0 40 9 55 25 24 23 25 31 25 135 0 104 -1 112 -25 135 -15
16 -36 25 -55 25 -19 0 -40 -9 -55 -25z"/>
<path d="M2505 3655 l-25 -24 0 -553 0 -553 303 -302 c273 -274 305 -303 335
-303 44 0 82 38 82 82 0 29 -28 60 -280 313 l-280 280 0 518 0 518 -25 24
c-15 16 -36 25 -55 25 -19 0 -40 -9 -55 -25z"/>
<path d="M1489 3631 c-48 -49 -36 -83 64 -178 66 -64 95 -75 142 -57 26 10 45
63 33 94 -11 31 -113 136 -150 156 -39 20 -56 18 -89 -15z"/>
<path d="M3535 3641 c-16 -10 -56 -45 -87 -79 -48 -50 -58 -66 -58 -96 0 -48
29 -76 76 -76 32 0 46 9 110 73 91 89 102 121 56 167 -35 35 -55 37 -97 11z"/>
<path d="M1065 2615 c-16 -15 -25 -36 -25 -55 0 -19 9 -40 25 -55 23 -24 31
-25 135 -25 104 0 112 1 135 25 16 15 25 36 25 55 0 19 -9 40 -25 55 -23 24
-31 25 -135 25 -104 0 -112 -1 -135 -25z"/>
<path d="M3785 2615 c-16 -15 -25 -36 -25 -55 0 -19 9 -40 25 -55 23 -24 31
-25 135 -25 104 0 112 1 135 25 16 15 25 36 25 55 0 19 -9 40 -25 55 -23 24
-31 25 -135 25 -104 0 -112 -1 -135 -25z"/>
<path d="M1553 1668 c-100 -97 -112 -130 -63 -180 44 -44 78 -34 159 45 74 73
93 108 79 149 -12 34 -35 48 -78 48 -25 0 -45 -13 -97 -62z"/>
<path d="M3410 1710 c-13 -13 -20 -33 -20 -56 0 -31 10 -46 66 -104 96 -100
146 -112 189 -46 27 41 12 76 -69 155 -64 61 -79 71 -110 71 -23 0 -43 -7 -56
-20z"/>
<path d="M2505 1335 c-24 -23 -25 -31 -25 -135 0 -104 1 -112 25 -135 15 -16
36 -25 55 -25 19 0 40 9 55 25 24 23 25 31 25 135 0 104 -1 112 -25 135 -15
16 -36 25 -55 25 -19 0 -40 -9 -55 -25z"/>
<path d="M1446 4314 c-120 -72 -314 -232 -396 -327 -40 -46 -43 -86 -10 -122
42 -44 71 -35 163 53 113 106 176 158 290 236 104 72 119 94 97 145 -11 27
-46 51 -73 51 -7 0 -39 -16 -71 -36z"/>
<path d="M3565 4338 c-40 -23 -55 -61 -39 -103 4 -9 46 -43 94 -75 109 -73
191 -141 296 -242 86 -82 110 -92 152 -62 32 22 44 58 31 91 -22 58 -279 281
-423 367 -64 39 -80 42 -111 24z"/>
</g>
</svg>
