<?xml version="1.0" standalone="no"?>
<!DOCTYPE svg PUBLIC "-//W3C//DTD SVG 20010904//EN"
 "http://www.w3.org/TR/2001/REC-SVG-20010904/DTD/svg10.dtd">
<svg version="1.0" xmlns="http://www.w3.org/2000/svg"
 width="512.000000pt" height="512.000000pt" viewBox="0 0 512.000000 512.000000"
 preserveAspectRatio="xMidYMid meet">

<g transform="translate(0.000000,512.000000) scale(0.100000,-0.100000)"
fill="#000000" stroke="none">
<path d="M1247 4990 c-92 -23 -168 -85 -209 -169 -19 -38 -23 -67 -26 -173
l-4 -127 -292 -3 -292 -3 -75 -37 c-86 -42 -162 -113 -202 -186 -60 -111 -57
1 -57 -1964 0 -1293 3 -1812 11 -1850 26 -123 121 -248 229 -303 113 -57 9
-55 2230 -55 2221 0 2117 -2 2230 55 108 55 203 180 229 303 8 38 11 557 11
1850 0 1965 3 1853 -57 1964 -40 73 -116 144 -202 186 l-75 37 -293 3 -293 3
0 102 c-1 125 -12 178 -52 240 -39 61 -100 103 -178 123 -101 26 -204 -4 -278
-79 -66 -68 -84 -122 -90 -264 l-5 -123 -947 0 -947 0 -5 123 c-6 144 -25 201
-91 265 -71 70 -182 103 -270 82z m149 -181 c53 -50 54 -54 54 -391 0 -293 -1
-315 -20 -345 -54 -90 -164 -96 -234 -13 l-26 32 0 326 c0 302 2 329 19 358
40 66 153 84 207 33z m2485 16 c16 -9 39 -30 49 -48 19 -30 20 -52 20 -359 l0
-326 -26 -32 c-70 -83 -180 -77 -234 13 -19 30 -20 52 -20 347 0 297 1 317 20
348 40 65 125 91 191 57z m-2869 -607 c4 -141 6 -157 30 -204 28 -54 86 -112
140 -140 49 -25 164 -30 226 -10 67 23 135 84 168 153 26 52 28 68 32 205 l4
148 948 0 948 0 4 -148 c4 -137 6 -153 32 -205 51 -105 150 -167 266 -167 114
0 215 62 268 164 24 47 26 62 30 204 l4 153 272 -3 c306 -3 325 -7 403 -85 86
-86 94 -135 91 -539 l-3 -319 -2315 0 -2315 0 0 350 c0 274 3 359 14 390 33
94 108 167 199 191 32 9 129 13 298 13 l252 1 4 -152z m3863 -2333 l0 -1380
-28 -57 c-16 -32 -48 -75 -73 -97 -88 -77 103 -71 -2214 -71 -2317 0 -2126 -6
-2214 71 -25 22 -57 65 -73 97 l-28 57 -3 1370 c-1 753 0 1375 2 1382 4 11
441 13 2318 11 l2313 -3 0 -1380z"/>
<path d="M855 3038 c-32 -17 -76 -61 -91 -90 -20 -38 -20 -414 0 -461 16 -39
61 -82 99 -96 17 -7 110 -11 223 -11 171 0 199 2 232 19 42 22 63 43 86 88 13
26 16 67 16 227 0 113 -4 206 -11 223 -13 34 -55 80 -91 99 -34 18 -431 20
-463 2z m403 -150 c17 -17 17 -329 0 -346 -17 -17 -329 -17 -346 0 -13 13 -18
339 -5 351 12 13 338 8 351 -5z"/>
<path d="M1835 3036 c-39 -17 -70 -52 -90 -98 -12 -29 -15 -78 -15 -223 0
-232 12 -270 102 -316 33 -17 61 -19 233 -19 219 0 241 5 292 63 45 52 53 91
53 272 0 217 -18 273 -100 315 -35 18 -59 20 -242 20 -147 -1 -211 -4 -233
-14z m413 -315 c2 -133 -1 -176 -10 -183 -7 -4 -86 -8 -175 -8 -150 0 -163 1
-173 19 -13 26 -13 306 0 332 10 18 21 19 183 17 l172 -3 3 -174z"/>
<path d="M2808 3030 c-80 -43 -98 -100 -98 -315 0 -181 8 -220 53 -272 51 -58
73 -63 292 -63 172 0 200 2 233 19 90 46 102 83 102 318 0 204 -8 241 -61 290
-42 38 -73 43 -282 43 -180 -1 -206 -3 -239 -20z m422 -149 c5 -11 10 -84 10
-166 0 -82 -5 -155 -10 -166 -10 -18 -23 -19 -170 -19 -87 0 -165 3 -174 6
-14 5 -16 31 -16 178 0 95 3 176 7 179 3 4 82 7 174 7 156 0 169 -1 179 -19z"/>
<path d="M3795 3031 c-40 -24 -71 -60 -84 -94 -7 -17 -11 -109 -11 -223 0
-160 3 -201 16 -227 23 -46 44 -66 87 -89 35 -17 56 -19 247 -16 l208 3 39 31
c69 55 73 73 73 302 0 214 -2 225 -49 275 -50 54 -63 57 -288 57 -185 0 -211
-2 -238 -19z m423 -305 c2 -116 -1 -173 -9 -182 -15 -19 -329 -20 -347 -2 -17
17 -17 329 0 346 9 9 59 12 183 10 l170 -3 3 -169z"/>
<path d="M854 2121 c-23 -10 -54 -36 -70 -57 l-29 -37 -3 -213 c-4 -244 3
-271 80 -321 l42 -28 205 0 c236 0 262 7 309 78 27 40 27 43 30 244 3 193 2
207 -19 249 -13 28 -37 56 -62 72 -40 27 -42 27 -241 30 -180 2 -205 0 -242
-17z m414 -301 c1 -85 0 -165 -3 -178 -5 -22 -6 -22 -183 -20 l-177 3 -3 165
c-1 90 0 170 3 177 3 11 43 13 182 11 l178 -3 3 -155z"/>
<path d="M1855 2129 c-38 -11 -94 -64 -111 -106 -17 -40 -20 -397 -3 -440 15
-40 57 -82 104 -104 34 -16 66 -19 215 -19 190 0 233 7 280 47 61 51 65 68 65
283 0 107 -3 207 -7 222 -12 40 -57 89 -103 109 -34 16 -66 18 -225 18 -102 0
-199 -5 -215 -10z m390 -329 l0 -175 -174 -3 c-133 -2 -176 1 -183 10 -9 15
-11 309 -2 332 6 14 28 16 183 14 l176 -3 0 -175z"/>
<path d="M2825 2122 c-51 -24 -91 -71 -106 -124 -7 -27 -9 -109 -7 -222 4
-198 9 -220 68 -269 47 -40 90 -47 280 -47 148 0 181 3 215 19 50 23 102 81
110 123 4 18 5 119 3 224 -3 182 -4 192 -27 226 -13 19 -40 46 -59 59 -34 23
-43 24 -236 27 -179 2 -205 0 -241 -16z m409 -158 c9 -23 7 -317 -2 -332 -7
-9 -50 -12 -183 -10 l-174 3 -3 165 c-1 90 0 170 2 177 4 10 47 13 180 13 149
0 175 -2 180 -16z"/>
<path d="M3829 2130 c-45 -13 -79 -41 -105 -86 -25 -42 -25 -44 -22 -252 3
-207 3 -209 30 -249 47 -71 73 -78 309 -78 l205 0 42 28 c77 50 84 77 80 321
l-3 213 -29 37 c-51 67 -85 76 -296 75 -102 0 -197 -4 -211 -9z m386 -330 l0
-175 -174 -3 c-133 -2 -176 1 -183 10 -9 16 -11 332 -1 342 4 3 86 5 182 4
l176 -3 0 -175z"/>
<path d="M860 1209 c-14 -6 -38 -22 -53 -37 -54 -51 -57 -64 -57 -287 0 -223
3 -236 57 -287 46 -44 72 -48 281 -48 223 0 241 5 296 73 l31 39 0 223 0 223
-30 38 c-57 70 -74 74 -300 73 -110 0 -211 -5 -225 -10z m398 -151 c17 -17 17
-329 0 -346 -17 -17 -329 -17 -346 0 -17 17 -17 329 0 346 17 17 329 17 346 0z"/>
<path d="M1835 1203 c-46 -24 -66 -45 -86 -88 -16 -34 -19 -67 -19 -230 0
-217 9 -250 76 -301 l37 -29 214 -3 c212 -3 215 -3 256 21 25 15 52 43 67 69
24 42 25 48 25 243 0 200 0 200 -27 247 -48 80 -77 88 -314 88 -162 -1 -205
-4 -229 -17z m403 -141 c9 -7 12 -50 10 -183 l-3 -174 -170 -3 c-151 -2 -171
-1 -182 15 -16 21 -18 305 -3 334 10 18 23 19 173 19 89 0 168 -4 175 -8z"/>
<path d="M2805 1196 c-23 -14 -51 -43 -65 -68 -24 -42 -25 -48 -25 -243 0
-195 1 -201 25 -243 15 -26 42 -54 67 -69 41 -24 44 -24 256 -21 l214 3 37 29
c67 51 76 84 76 299 0 235 -12 272 -102 318 -33 17 -61 19 -240 19 -197 0
-204 -1 -243 -24z m425 -145 c15 -29 13 -313 -3 -334 -11 -16 -31 -17 -182
-15 l-170 3 -3 174 c-2 133 1 176 10 183 7 4 86 8 175 8 150 0 163 -1 173 -19z"/>
<path d="M3800 1201 c-19 -10 -48 -35 -65 -55 l-30 -38 0 -223 0 -223 31 -39
c55 -68 73 -73 296 -73 209 0 235 4 281 48 54 51 57 64 57 287 0 223 -3 236
-57 287 -46 44 -72 48 -281 48 -173 0 -202 -2 -232 -19z m408 -143 c17 -17 17
-329 0 -346 -17 -17 -329 -17 -346 0 -17 17 -17 329 0 346 17 17 329 17 346 0z"/>
</g>
</svg>
